<svg xmlns="http://www.w3.org/2000/svg" xmlns:xlink="http://www.w3.org/1999/xlink" width="100" zoomAndPan="magnify" viewBox="0 0 75 74.999997" height="100" preserveAspectRatio="xMidYMid meet" version="1.0"><defs><clipPath id="fdbc8db513"><path d="M 2.882812 2.882812 L 51 2.882812 L 51 51 L 2.882812 51 Z M 2.882812 2.882812 " clip-rule="nonzero"/></clipPath><clipPath id="3c770898df"><path d="M 22.835938 4.394531 L 70.355469 4.394531 L 70.355469 70.355469 L 22.835938 70.355469 Z M 22.835938 4.394531 " clip-rule="nonzero"/></clipPath></defs><g clip-path="url(#fdbc8db513)"><path fill="#3ab0ff" d="M 50.3125 16.574219 L 50.3125 18.492188 C 50.082031 18.648438 49.84375 18.800781 49.597656 18.953125 C 48.800781 19.433594 47.90625 19.921875 46.945312 20.390625 C 46.148438 20.78125 45.304688 21.164062 44.421875 21.546875 L 44.421875 16.574219 C 44.421875 12.273438 40.921875 8.773438 36.617188 8.773438 C 32.316406 8.773438 28.816406 12.273438 28.816406 16.574219 L 28.816406 28.816406 L 16.574219 28.816406 C 12.273438 28.816406 8.773438 32.316406 8.773438 36.617188 C 8.773438 40.921875 12.273438 44.421875 16.574219 44.421875 L 20.664062 44.421875 L 20.664062 50.3125 L 16.574219 50.3125 C 9.023438 50.3125 2.882812 44.167969 2.882812 36.617188 C 2.882812 29.066406 9.023438 22.925781 16.574219 22.925781 L 22.925781 22.925781 L 22.925781 16.574219 C 22.925781 9.023438 29.066406 2.882812 36.617188 2.882812 C 44.167969 2.882812 50.3125 9.023438 50.3125 16.574219 " fill-opacity="1" fill-rule="nonzero"/></g><g clip-path="url(#3c770898df)"><path fill="#3ab0ff" d="M 60.613281 4.679688 C 60.652344 4.8125 60.71875 5.011719 60.785156 5.277344 C 60.925781 5.808594 61.113281 6.601562 61.230469 7.65625 C 61.296875 8.183594 61.328125 8.777344 61.339844 9.433594 C 61.339844 10.085938 61.308594 10.800781 61.222656 11.570312 C 61.042969 13.105469 60.640625 14.863281 59.882812 16.707031 C 59.128906 18.546875 58.019531 20.476562 56.503906 22.316406 C 55.75 23.238281 54.886719 24.128906 53.925781 24.980469 C 52.972656 25.816406 51.949219 26.597656 50.875 27.332031 C 48.730469 28.800781 46.390625 30.058594 44.066406 31.25 C 42.90625 31.847656 41.746094 32.433594 40.609375 33.03125 C 40.328125 33.183594 40.046875 33.332031 39.761719 33.484375 C 39.488281 33.636719 39.210938 33.789062 38.933594 33.941406 C 38.664062 34.09375 38.390625 34.25 38.121094 34.410156 C 37.851562 34.570312 37.585938 34.730469 37.316406 34.890625 C 35.199219 36.195312 33.359375 37.617188 31.9375 39.191406 C 31.226562 39.980469 30.617188 40.804688 30.109375 41.667969 C 30.082031 41.714844 30.050781 41.765625 30.023438 41.820312 C 30.769531 38.222656 32.496094 36.050781 32.496094 36.050781 C 29.617188 38.902344 28.972656 43.554688 28.839844 45.992188 C 28.828125 46.148438 28.824219 46.308594 28.820312 46.464844 C 28.796875 47.171875 28.816406 47.601562 28.816406 47.601562 L 28.816406 56.53125 C 28.816406 60.804688 32.195312 64.382812 36.46875 64.464844 C 40.839844 64.546875 44.421875 61.015625 44.421875 56.664062 L 44.421875 44.421875 L 56.53125 44.421875 C 60.804688 44.421875 64.382812 41.042969 64.464844 36.769531 C 64.546875 32.398438 61.015625 28.816406 56.664062 28.816406 L 51.894531 28.816406 C 53.050781 28.027344 54.132812 27.191406 55.109375 26.335938 C 56.148438 25.417969 57.082031 24.449219 57.898438 23.457031 C 58.015625 23.3125 58.128906 23.164062 58.242188 23.019531 C 65.050781 23.808594 70.355469 29.605469 70.355469 36.621094 C 70.355469 44.152344 64.023438 50.3125 56.492188 50.3125 L 50.3125 50.3125 L 50.3125 56.488281 C 50.3125 64.058594 44.246094 70.324219 36.675781 70.355469 C 29.367188 70.386719 23.363281 64.65625 22.949219 57.453125 C 22.949219 55.058594 22.949219 52.664062 22.949219 50.269531 C 22.949219 48.332031 22.859375 46.363281 22.964844 44.421875 C 23.058594 42.726562 23.300781 41.050781 23.886719 39.433594 C 24.5 37.726562 25.417969 36.167969 26.523438 34.734375 C 27.472656 33.503906 28.5625 32.378906 29.734375 31.367188 C 30.910156 30.359375 32.167969 29.460938 33.46875 28.65625 C 33.792969 28.460938 34.117188 28.265625 34.445312 28.074219 C 34.773438 27.894531 35.097656 27.710938 35.425781 27.53125 C 35.75 27.363281 36.078125 27.1875 36.402344 27.027344 C 36.722656 26.867188 37.046875 26.707031 37.367188 26.554688 C 38.644531 25.945312 39.894531 25.402344 41.101562 24.894531 C 43.515625 23.882812 45.746094 22.984375 47.734375 22.007812 C 48.730469 21.519531 49.667969 21.015625 50.539062 20.484375 C 51.394531 19.960938 52.199219 19.398438 52.941406 18.796875 C 54.429688 17.597656 55.675781 16.269531 56.675781 14.933594 C 57.679688 13.597656 58.429688 12.246094 58.980469 10.992188 C 59.25 10.363281 59.472656 9.757812 59.65625 9.1875 C 59.832031 8.617188 59.984375 8.085938 60.089844 7.597656 C 60.308594 6.625 60.414062 5.839844 60.472656 5.300781 C 60.523438 4.761719 60.550781 4.480469 60.550781 4.480469 C 60.550781 4.480469 60.570312 4.546875 60.613281 4.679688 " fill-opacity="1" fill-rule="nonzero"/></g></svg>